<?xml version="1.0" standalone="no"?>
<!DOCTYPE svg PUBLIC "-//W3C//DTD SVG 20010904//EN"
 "http://www.w3.org/TR/2001/REC-SVG-20010904/DTD/svg10.dtd">
<svg version="1.0" xmlns="http://www.w3.org/2000/svg"
 width="304.000000pt" height="116.000000pt" viewBox="0 0 304.000000 116.000000"
 preserveAspectRatio="xMidYMid meet">

<g transform="translate(0.000000,116.000000) scale(0.100000,-0.100000)"
fill="#000000" stroke="none">
<path d="M307 763 c-5 -4 -23 -6 -40 -5 -89 8 -150 -132 -98 -228 29 -56 73
-80 147 -80 52 0 67 4 93 26 38 32 49 80 27 122 -9 17 -21 32 -28 34 -9 3 -4
16 15 41 20 27 24 37 13 37 -8 0 -24 12 -35 26 -17 22 -23 24 -36 14 -21 -17
-19 -37 5 -50 31 -16 25 -46 -11 -59 -40 -14 -39 -14 -33 3 3 8 -2 28 -10 45
-20 37 -20 45 -1 37 16 -6 17 -1 6 27 -3 10 -10 15 -14 10z m-42 -49 c-16 -25
-16 -28 1 -60 22 -41 10 -60 -32 -50 -24 6 -26 10 -21 47 6 47 31 89 53 89 15
0 15 -3 -1 -26z m105 -126 c27 -30 26 -73 -5 -103 -49 -50 -108 -19 -144 79
-10 25 -9 26 13 20 14 -3 36 1 53 10 39 21 59 20 83 -6z"/>
<path d="M1287 739 c-45 -26 -63 -138 -31 -204 22 -47 84 -87 143 -93 45 -4
51 -2 87 33 25 23 32 35 19 30 -35 -11 -105 -18 -105 -10 0 5 10 19 21 31 23
24 21 60 -4 86 -7 7 -19 28 -26 46 -19 45 -5 58 44 42 33 -11 39 -10 61 11 13
12 24 25 24 28 0 14 -95 10 -111 -5 -14 -13 -18 -13 -29 1 -14 17 -66 20 -93
4z m81 -11 c9 -9 4 -18 -20 -39 l-32 -26 38 -63 c29 -46 36 -66 30 -81 -13
-28 -52 -4 -82 51 -19 36 -22 54 -18 89 9 67 51 102 84 69z"/>
<path d="M2095 651 c-15 -18 -16 -25 -7 -47 18 -37 15 -104 -5 -126 -14 -16
-14 -18 -1 -13 12 5 17 -4 22 -44 8 -61 22 -66 31 -11 6 35 9 39 29 34 19 -4
29 3 55 42 35 54 39 85 13 135 l-18 35 -32 -19 c-34 -20 -49 -16 -61 15 -7 19
-7 19 -26 -1z m104 -70 c24 -34 26 -60 7 -86 -12 -17 -18 -18 -40 -7 -22 10
-26 18 -26 55 0 39 13 67 31 67 4 0 17 -13 28 -29z"/>
<path d="M2725 650 c-15 -17 -16 -24 -7 -46 16 -33 15 -107 0 -122 -9 -9 -8
-15 8 -27 25 -19 27 -19 54 10 19 21 21 25 7 25 -24 0 -25 105 -1 114 9 4 18
5 19 4 29 -42 35 -60 35 -96 0 -43 -18 -91 -49 -126 -13 -15 -13 -18 -2 -14
23 7 80 95 87 134 8 45 -2 93 -27 123 l-20 24 -22 -22 c-30 -28 -36 -27 -51 9
-12 30 -12 30 -31 10z"/>
<path d="M522 619 c-56 -54 -57 -99 -6 -167 1 -2 16 6 33 19 l30 22 20 -24
c19 -23 19 -24 40 -5 23 21 28 37 9 34 -9 -2 -13 17 -14 66 -1 68 -2 69 -34
82 -18 8 -33 14 -35 14 -1 0 -21 -18 -43 -41z m42 -5 c22 -8 22 -96 0 -115
-23 -19 -34 4 -34 69 0 52 4 57 34 46z"/>
<path d="M697 642 c-19 -20 -23 -37 -7 -27 6 3 11 -3 11 -14 1 -12 2 -27 3
-33 1 -7 -1 -32 -5 -55 -4 -32 -2 -45 11 -56 15 -13 20 -12 40 3 15 11 19 19
11 24 -19 12 -14 101 7 119 10 10 22 17 25 17 4 0 7 -34 7 -75 0 -65 3 -76 21
-85 16 -9 25 -8 40 6 23 21 25 36 3 27 -14 -5 -16 3 -12 70 3 71 2 77 -20 88
-20 11 -26 10 -49 -14 -27 -26 -27 -26 -37 -5 -15 29 -29 32 -49 10z"/>
<path d="M952 622 c-37 -35 -42 -44 -42 -83 0 -26 7 -53 18 -67 l18 -23 28 22
c15 12 31 18 34 13 24 -32 39 -34 63 -7 19 21 20 25 6 20 -17 -6 -18 -1 -16
64 l2 71 -33 14 c-18 8 -33 14 -34 14 -2 0 -21 -17 -44 -38z m42 -8 c24 -9 22
-100 -3 -113 -15 -8 -20 -6 -30 15 -12 27 -14 64 -5 88 7 17 14 19 38 10z"/>
<path d="M1848 633 l-27 -27 -20 25 c-19 24 -19 24 -40 5 -19 -17 -20 -21 -6
-28 17 -10 22 -128 5 -128 -17 0 -11 -14 11 -28 33 -21 44 -1 41 71 -3 54 -1
64 18 75 33 20 42 5 39 -67 -4 -88 6 -105 45 -76 16 12 17 18 8 27 -20 20 -15
92 7 112 30 27 41 11 41 -62 0 -55 3 -69 19 -79 15 -9 21 -8 35 8 17 21 21 33
7 25 -5 -3 -12 1 -15 10 -10 26 -7 109 5 121 7 7 2 15 -17 27 -25 17 -27 17
-55 -10 -16 -15 -30 -26 -31 -23 -2 2 -8 13 -14 23 -16 29 -26 29 -56 -1z"/>
<path d="M2585 636 l-29 -23 -17 21 c-17 21 -17 21 -38 2 -15 -13 -18 -22 -10
-27 7 -4 10 -31 7 -77 -3 -60 -1 -72 15 -82 32 -19 44 2 39 70 -4 48 -1 65 13
80 27 30 35 15 35 -63 0 -60 3 -74 19 -84 16 -10 22 -8 42 13 20 21 20 24 5
24 -16 0 -17 9 -15 70 3 61 1 72 -17 84 -18 13 -23 12 -49 -8z"/>
<path d="M1608 633 l-38 -16 0 -76 0 -77 32 -12 c31 -11 34 -10 71 26 50 49
55 72 26 127 -26 49 -34 51 -91 28z m45 -39 c41 -56 27 -125 -23 -109 -17 6
-20 15 -20 71 0 71 12 81 43 38z"/>
<path d="M2317 612 c-40 -41 -48 -86 -25 -137 13 -30 25 -31 57 -6 25 19 25
19 44 -6 l19 -24 24 22 c28 26 31 41 8 32 -14 -5 -16 3 -12 65 l4 70 -37 11
c-20 6 -38 11 -41 11 -2 0 -21 -17 -41 -38z m44 -2 c25 -14 28 -104 3 -114
-22 -9 -31 0 -39 34 -6 29 1 90 11 90 3 0 14 -5 25 -10z"/>
</g>
</svg>
